<svg width="324" height="70" viewBox="0 0 324 70" fill="none" xmlns="http://www.w3.org/2000/svg">
<g clip-path="url(#clip0_209_7)">
<path d="M35 69.1728C54.33 69.1728 70 53.7266 70 34.6728C70 15.619 54.33 0.172806 35 0.172806C15.67 0.172806 0 15.619 0 34.6728C0 53.7266 15.67 69.1728 35 69.1728Z" fill="#333333"/>
<path d="M23.0652 43.9667C24.4611 47.1451 25.7435 51.1641 25.481 54.5052C25.6088 54.8902 25.356 54.6745 25.2519 54.6435C22.283 53.7501 19.2499 50.9506 19.1823 47.7682C19.1372 45.6438 19.7129 42.6815 19.65 39.9433C19.6211 38.6121 19.1223 38.0536 18.5018 36.9808C18.3767 36.7653 18.4292 36.7091 18.6594 36.812C26.1895 40.2095 30.7166 46.5303 26.3316 54.5019C26.2039 54.735 26.1295 54.7198 26.1084 54.4563C25.8188 50.9859 25.2757 46.9694 23.2067 43.9958C23.191 43.972 23.169 43.9623 23.1405 43.9669C23.1085 43.9703 23.0837 43.9694 23.0661 43.964L23.0652 43.9667Z" fill="#CBCBCB"/>
<path d="M47.0979 49.6256C47.108 49.6216 47.111 49.6146 47.107 49.6046L47.0827 49.5298C47.0665 49.4838 47.0331 49.4659 46.9824 49.4759C43.7714 50.2275 40.7213 52.0601 38.3001 54.1413C38.0267 54.3748 37.9447 54.3219 38.054 53.9826C40.5573 46.1819 48.2492 45.1518 55.0359 48.1134C55.3316 48.2411 55.3184 48.31 54.9964 48.32C53.5291 48.3649 52.3838 49.0776 51.4026 50.0718C47.994 53.5154 44.49 58.2146 38.636 55.0404C38.4213 54.9226 38.396 54.7749 38.5601 54.5972C41.1136 52.2736 44.0843 50.8803 47.0979 49.6256Z" fill="#CBCBCB"/>
<path d="M36.0012 21.4858C37.8809 21.4858 39.4047 19.9838 39.4047 18.1309C39.4047 16.278 37.8809 14.776 36.0012 14.776C34.1215 14.776 32.5977 16.278 32.5977 18.1309C32.5977 19.9838 34.1215 21.4858 36.0012 21.4858Z" fill="#3CD8C9"/>
<path d="M29.9415 12.7467C29.9797 12.7626 29.9708 12.8402 29.9139 13.2293C29.8616 13.5866 29.7595 14.2938 29.7899 15.179C29.8159 15.9357 29.9357 16.7696 30.2117 17.634C30.3013 17.9145 30.4045 18.1891 30.5206 18.4567C30.8071 19.1167 31.2083 19.7681 31.7198 20.4023C32.5887 21.5391 33.6576 22.5193 34.789 23.5475C35.8481 24.5098 37.1019 25.6344 38.2219 26.9722C38.7502 27.6033 39.2741 28.3106 39.7519 29.1062C40.1975 29.8481 40.6336 30.72 40.999 31.7236C41.6399 33.4838 42.0475 35.6001 41.9776 38.1816C41.9489 39.6232 41.6964 41.009 41.281 42.3239C40.8674 43.633 40.2962 44.8599 39.6371 45.9925C38.2621 48.3556 36.4926 50.3293 34.9245 51.8137C32.1424 54.4472 29.6776 55.8633 29.1508 56.166C28.293 56.6588 28.177 56.6147 28.1548 56.5819C28.1326 56.5492 28.1554 56.4539 28.8626 55.7877C29.0694 55.5929 31.5719 53.2684 33.6461 50.6684C34.9389 49.0479 36.3117 47.0449 37.2818 44.8216C37.7439 43.7623 38.1059 42.6733 38.3313 41.5658C38.5571 40.4561 38.6418 39.348 38.5654 38.2438C38.4078 36.0819 37.9051 34.4346 37.3385 33.1227C37.0108 32.3641 36.6488 31.6895 36.3011 31.0923C35.9279 30.4513 35.532 29.8355 35.1347 29.2451C34.2685 27.9581 33.3594 26.7337 32.5012 25.469C31.6101 24.1559 30.7692 22.796 30.1085 21.3192C29.7398 20.4507 29.4931 19.6141 29.3204 18.8264C29.2501 18.5059 29.1932 18.1838 29.1505 17.8595C29.019 16.8613 29.0366 15.9486 29.1439 15.1463C29.2708 14.1961 29.508 13.5132 29.6655 13.1588C29.8309 12.7864 29.9152 12.7359 29.9415 12.7467Z" fill="#3CD8C9"/>
<path d="M28.1805 16.7971C28.1997 16.7995 28.2161 16.8921 28.2479 17.31C28.2777 17.7017 28.3368 18.4917 28.5161 19.4594C28.7185 20.5521 29.0432 21.715 29.5457 22.8899C29.8678 23.6427 30.2716 24.4096 30.774 25.1681C31.4925 26.2571 32.2569 27.2368 33.008 28.2358C33.7441 29.2148 34.4869 30.2377 35.1199 31.3752C35.3826 31.8472 35.6295 32.3444 35.8518 32.8732C36.1487 33.5798 36.4098 34.357 36.607 35.2226C36.9354 36.664 37.0778 38.3099 36.9482 40.2581C36.8498 41.6896 36.4101 43.1124 35.8628 44.3814C35.2843 45.7225 34.5694 46.9297 33.9464 47.8583C33.9214 47.8957 33.8963 47.9328 33.8711 47.9699C33.0306 49.2056 32.1843 50.1713 31.635 50.7095C31.073 51.26 30.9107 51.2916 30.8842 51.2634C30.8493 51.2263 30.8931 51.0713 31.3011 50.3891C31.6925 49.7347 32.4021 48.6126 33.1011 47.384C33.1227 47.3461 33.1442 47.3082 33.1658 47.2702C33.7022 46.322 34.3257 45.1314 34.8194 43.8593C35.2911 42.6438 35.6364 41.3751 35.698 40.1657C35.7965 38.3486 35.6518 36.8544 35.3591 35.5693C35.1829 34.7954 34.9532 34.0982 34.6927 33.4585C34.4975 32.9791 34.2818 32.5212 34.051 32.0781C33.4914 31.0037 32.835 30.0005 32.1508 28.9778C31.4615 27.9476 30.7328 26.8817 30.0544 25.7104C29.5653 24.8641 29.1867 24.0184 28.8937 23.2014C28.4381 21.9309 28.1823 20.6763 28.0748 19.5339C27.9774 18.4988 28.0169 17.7215 28.0636 17.3058C28.1123 16.8715 28.1652 16.7952 28.1805 16.7971Z" fill="#CBCBCB"/>
<path d="M7.64598 53.1604C8.13212 53.7976 9.30787 55.3969 11.222 57.1033C12.6291 58.3577 14.8375 59.9902 17.8092 61.3936C21.2655 63.0259 25.5168 64.2333 30.34 64.3658C34.4696 64.6098 38.4856 64.0299 42.2166 62.7343C45.9024 61.4543 49.2414 59.4997 52.0883 57.0482C55.0149 54.5282 57.3655 51.5334 59.0789 48.2742C60.7619 45.0729 61.7985 41.682 62.2453 38.2483C62.288 37.9203 62.3258 37.5883 62.3583 37.2525C62.7249 33.4709 62.3884 29.6012 61.2456 25.8142C60.1813 22.287 58.4376 18.9087 56.0416 15.8951C53.7048 12.9559 50.7902 10.4197 47.4106 8.48475C43.9836 6.52272 40.143 5.21578 36.0387 4.698C30.2907 3.85409 25.0344 4.68757 20.7651 6.23889C17.0712 7.5811 14.3204 9.37859 12.5687 10.7843C10.1726 12.7071 8.69884 14.5908 8.10061 15.3394C8.6777 14.5966 10.2293 12.738 12.5109 10.7176C14.1824 9.2375 16.7715 7.15062 20.3869 5.37707C24.5575 3.33111 29.9873 1.77088 36.292 2.04609C40.7831 2.32584 45.1102 3.48327 49.0721 5.44356C52.9771 7.37564 56.4362 10.0436 59.27 13.2604C62.175 16.5582 64.3594 20.3594 65.7283 24.4169C67.1994 28.777 67.6848 33.2929 67.2684 37.7082C67.2315 38.0993 67.1879 38.4861 67.1379 38.8685C66.6135 42.8793 65.3302 46.8246 63.2595 50.4935C61.1524 54.2268 58.2884 57.566 54.8022 60.2793C51.4102 62.9193 47.5036 64.9077 43.2929 66.0891C39.028 67.2858 34.5535 67.6268 30.0815 67.0725C24.8956 66.2768 20.618 64.3474 17.331 62.2284C14.5006 60.4037 12.4826 58.4939 11.1604 57.1666C9.3714 55.3706 8.108 53.7871 7.64598 53.1604Z" fill="#3CD8C9"/>
<path d="M55.6769 50.9344C55.2451 51.5004 54.2007 52.921 52.5005 54.4368C51.2506 55.551 49.2888 57.0011 46.6492 58.2478C43.579 59.6977 39.8027 60.7702 35.5183 60.8879C31.8501 61.1046 28.2828 60.5895 24.9686 59.4386C21.6946 58.3017 18.7286 56.5654 16.1997 54.3878C13.6001 52.1493 11.5121 49.4892 9.99013 46.5941C8.49517 43.7504 7.57438 40.7384 7.17749 37.6883C7.13957 37.3969 7.10602 37.102 7.0771 36.8037C6.75148 33.4446 7.05041 30.0072 8.06549 26.6433C9.01094 23.5102 10.5598 20.5093 12.6881 17.8324C14.7638 15.2216 17.3528 12.9687 20.3549 11.2499C23.399 9.50709 26.8105 8.34617 30.4563 7.88623C35.5621 7.13661 40.2312 7.87698 44.0235 9.25497C47.3047 10.4472 49.7482 12.0439 51.3042 13.2925C53.4326 15.0005 54.7417 16.6738 55.2731 17.3388C54.7605 16.6789 53.3822 15.028 51.3555 13.2334C49.8707 11.9186 47.5709 10.0648 44.3595 8.48944C40.6548 6.67206 35.8316 5.28614 30.2313 5.5306C26.2419 5.7791 22.3983 6.80721 18.8789 8.5485C15.4103 10.2647 12.3376 12.6346 9.82044 15.4921C7.23996 18.4214 5.29962 21.798 4.0836 25.4021C2.7769 29.2751 2.34575 33.2865 2.71559 37.2085C2.74835 37.5559 2.78709 37.8995 2.8315 38.2391C3.2973 41.8019 4.43729 45.3064 6.27665 48.5654C8.14829 51.8816 10.6923 54.8478 13.7891 57.258C16.8021 59.603 20.2723 61.3692 24.0125 62.4187C27.801 63.4816 31.7756 63.7845 35.7479 63.2922C40.3544 62.5854 44.1541 60.8715 47.0739 58.9892C49.5881 57.3684 51.3807 55.672 52.5552 54.493C54.1443 52.8977 55.2665 51.4911 55.6769 50.9344Z" fill="#CBCBCB"/>
</g>
<path d="M97.2265 24.6867C96.628 24.6867 96.1117 24.4472 95.6778 23.9684C95.2588 23.4896 94.8922 22.8761 94.578 22.1279C94.2638 21.3797 93.9869 20.6091 93.7475 19.816C93.1939 18.0055 92.9619 16.9281 93.0517 16.5839C92.1689 17.7661 91.4057 18.7536 90.7623 19.5467C90.1189 20.3248 89.5952 20.9084 89.1911 21.2974C87.4255 23.0033 85.6373 23.8562 83.8267 23.8562C83.2881 23.8562 82.8466 23.744 82.5025 23.5195C82.1434 23.295 81.9638 22.921 81.9638 22.3972C81.9638 22.068 82.0386 21.7164 82.1882 21.3423C82.3379 20.9533 82.5249 20.5867 82.7494 20.2425C82.9738 19.8983 83.1983 19.614 83.4227 19.3896C83.9165 18.8958 84.328 18.6489 84.6572 18.6489C84.7171 18.6489 84.747 18.6639 84.747 18.6938C84.747 18.7686 84.6348 18.8958 84.4103 19.0754C83.8866 19.4943 83.4527 19.9806 83.1085 20.5343C82.7643 21.073 82.5923 21.5668 82.5923 22.0157C82.5923 22.8536 83.1833 23.2502 84.3654 23.2053C86.2957 23.1305 88.9742 20.7962 92.4008 16.2024C92.5953 15.948 92.7599 15.7684 92.8946 15.6637L92.5355 15.529C92.341 15.6038 92.1838 15.6412 92.0641 15.6412C91.7499 15.6412 91.5928 15.5141 91.5928 15.2597C91.5928 14.9155 91.8247 14.6911 92.2886 14.5863C92.5729 14.5115 92.9395 14.6387 93.3884 14.9679C93.972 14.3095 94.5331 13.681 95.0718 13.0825C95.6254 12.484 96.1267 11.9976 96.5756 11.6236C97.0245 11.2345 97.3836 11.04 97.653 11.04C98.0121 11.04 98.1917 11.2046 98.1917 11.5338C98.1917 11.6684 98.1543 11.8106 98.0794 11.9602C98.0196 12.0949 97.9448 12.1622 97.855 12.1622C97.7652 12.1772 97.7203 12.1323 97.7203 12.0276C97.7203 11.9528 97.7652 11.863 97.855 11.7582V11.6684C97.855 11.5787 97.8251 11.5113 97.7652 11.4664C97.3762 11.2121 96.1791 12.4765 94.174 15.2597C94.3386 15.2746 94.5107 15.2896 94.6902 15.3046C94.8847 15.3046 95.0867 15.3046 95.2962 15.3046C98.7678 15.3046 100.937 14.4068 101.805 12.6111C101.985 12.2221 102.075 11.863 102.075 11.5338C102.075 10.8754 101.768 10.2993 101.154 9.8055C100.601 9.35659 99.8676 9.05732 98.9548 8.90769C98.057 8.74309 97.1592 8.66079 96.2614 8.66079C94.2712 8.66079 92.1539 9.20696 89.9094 10.2993C87.186 11.631 85.8244 13.1947 85.8244 14.9903C85.8244 15.5739 86.2059 15.8657 86.9691 15.8657C87.6724 15.8657 88.4654 15.5814 89.3483 15.0128C90.1114 14.504 90.6351 13.9878 90.9194 13.4641C91.0242 13.2695 91.1214 13.1723 91.2112 13.1723C91.316 13.1723 91.3459 13.2321 91.301 13.3518C91.0167 14.1898 90.3807 14.908 89.3932 15.5066C88.4355 16.0901 87.4479 16.3819 86.4304 16.3819C85.2183 16.3819 84.6572 15.9929 84.747 15.2148C84.9715 13.2546 86.176 11.5861 88.3607 10.2095C90.5304 8.84784 93.149 8.167 96.2165 8.167C97.3836 8.167 98.5134 8.27174 99.6057 8.48123C100.713 8.69072 101.611 9.07977 102.299 9.64838C103.017 10.2469 103.376 10.9502 103.376 11.7582C103.376 12.1024 103.294 12.4765 103.13 12.8805C102.875 13.4641 102.486 13.9653 101.962 14.3843C101.439 14.7883 100.833 15.1175 100.144 15.3719C99.4561 15.6263 98.7303 15.8133 97.9672 15.933C97.2041 16.0527 96.4634 16.1126 95.7451 16.1126C95.3561 16.1126 94.982 16.0976 94.6229 16.0677C94.2787 16.0378 93.957 15.9929 93.6577 15.933C93.7475 16.2173 93.9046 16.7336 94.1291 17.4817C94.3535 18.2299 94.6378 19.2025 94.982 20.3996C95.0867 20.7288 95.2289 21.0879 95.4085 21.477C95.603 21.866 95.82 22.2326 96.0594 22.5768C96.2988 22.921 96.5532 23.2053 96.8225 23.4297C97.1068 23.6542 97.3911 23.7664 97.6754 23.7664C98.3039 23.7664 98.8276 23.1305 99.2466 21.8586C99.3214 21.5593 99.4037 21.4097 99.4935 21.4097C99.5683 21.4097 99.6356 21.5518 99.6955 21.8361C99.7105 21.881 99.7179 21.9409 99.7179 22.0157C99.7179 22.4047 99.5084 22.8836 99.0895 23.4522C98.5358 24.2752 97.9148 24.6867 97.2265 24.6867ZM101.288 22.285C100.929 22.285 100.57 22.1578 100.211 21.9034C99.8516 21.6491 99.6495 21.3498 99.6047 21.0056C99.455 19.8535 100.181 18.4843 101.782 16.8982C103.368 15.312 104.797 14.519 106.069 14.519C106.413 14.519 106.682 14.6013 106.877 14.7659C106.982 14.8706 107.056 15.0128 107.101 15.1923C107.161 15.3719 107.206 15.4617 107.236 15.4617C107.296 15.4617 107.348 15.4542 107.393 15.4392C107.438 15.4093 107.49 15.3943 107.55 15.3943C107.73 15.3943 107.887 15.4617 108.022 15.5964C108.156 15.731 108.231 15.8507 108.246 15.9555C108.261 15.9854 107.782 16.7261 106.81 18.1775C105.837 19.5991 105.396 20.5642 105.485 21.073C105.56 21.4171 105.725 21.5892 105.979 21.5892C106.757 21.5892 108.179 20.3024 110.244 17.7286C110.289 17.6688 110.333 17.6389 110.378 17.6389C110.453 17.6389 110.491 17.6912 110.491 17.796C110.491 17.9157 110.423 18.0653 110.289 18.2449C108.388 20.8036 106.929 22.083 105.912 22.083C105.777 22.083 105.65 22.0606 105.53 22.0157C104.872 21.7613 104.543 21.2675 104.543 20.5343C104.543 20.2799 104.573 20.0255 104.632 19.7712L103.241 21.1179C102.822 21.5368 102.44 21.8361 102.096 22.0157C101.767 22.1952 101.498 22.285 101.288 22.285ZM101.086 21.7912C101.954 21.7912 103.136 20.841 104.632 18.9407L107.012 15.6637C106.892 15.4542 106.697 15.3495 106.428 15.3495C105.515 15.3495 104.281 16.0827 102.725 17.5491C101.108 19.0454 100.383 20.2799 100.547 21.2525C100.622 21.6117 100.802 21.7912 101.086 21.7912ZM110.74 22.4646C110.261 22.4646 109.827 22.3149 109.438 22.0157C109.049 21.7014 108.855 21.2899 108.855 20.7812C108.855 19.7188 109.505 18.5067 110.807 17.1451C112.139 15.7684 113.329 15.0801 114.376 15.0801C114.735 15.0801 115.019 15.1774 115.229 15.3719C115.438 15.5515 115.543 15.7759 115.543 16.0453C115.543 16.4193 115.453 16.7635 115.274 17.0777C115.064 17.4668 114.765 17.6613 114.376 17.6613C113.987 17.6613 113.792 17.5416 113.792 17.3022C113.792 17.1376 113.89 16.8907 114.084 16.5615C114.294 16.2173 114.398 16.0378 114.398 16.0228C114.398 15.9929 114.376 15.9779 114.331 15.9779C113.912 16.0228 113.329 16.3296 112.58 16.8982C112.251 17.1526 111.959 17.392 111.705 17.6164C111.466 17.8409 111.271 18.0578 111.121 18.2673L110.246 19.5467C110.156 19.6814 110.059 19.9133 109.954 20.2425C109.865 20.5717 109.82 20.8186 109.82 20.9832C109.82 21.2825 109.917 21.5294 110.111 21.7239C110.321 21.9184 110.583 22.0157 110.897 22.0157C111.645 22.0157 112.633 21.5294 113.86 20.5567C114.847 19.7786 115.64 18.9931 116.239 18.2C116.314 18.1102 116.404 18.0653 116.508 18.0653C116.613 18.0653 116.665 18.0952 116.665 18.1551C116.665 18.2 116.628 18.2748 116.553 18.3796C115.73 19.4719 114.765 20.4146 113.658 21.2076C112.476 22.0456 111.503 22.4646 110.74 22.4646ZM114.785 22.285C114.351 22.285 114.134 22.1578 114.134 21.9034C114.134 21.7538 114.223 21.5144 114.403 21.1852C115.091 19.9582 115.705 18.8733 116.244 17.9307C116.797 16.973 117.284 16.165 117.702 15.5066C119.483 12.6486 120.74 11.0998 121.473 10.8604C121.503 10.8604 121.526 10.8604 121.541 10.8604C121.556 10.8455 121.571 10.838 121.585 10.838C121.78 10.838 121.907 10.9951 121.967 11.3093C121.922 11.6236 121.144 12.7608 119.633 14.721C118.84 15.7235 118.219 16.554 117.77 17.2124C117.336 17.8558 117.067 18.3272 116.962 18.6265C117.456 18.2673 117.987 17.8858 118.555 17.4817C119.124 17.0777 119.678 16.6962 120.216 16.337C120.755 15.963 121.241 15.6637 121.675 15.4392C122.109 15.1998 122.446 15.0652 122.685 15.0352C122.715 15.0352 122.753 15.0352 122.798 15.0352C122.842 15.0203 122.872 15.0128 122.887 15.0128C123.306 15.0128 123.516 15.2073 123.516 15.5964C123.516 15.7011 123.381 15.933 123.112 16.2922C122.842 16.6513 122.431 17.2049 121.877 17.9531C120.89 19.2699 120.396 20.2575 120.396 20.9159C120.396 21.26 120.523 21.4321 120.777 21.4321C121.047 21.4171 121.354 21.2974 121.698 21.073C122.057 20.8485 122.416 20.5717 122.775 20.2425C123.134 19.9133 123.456 19.5916 123.74 19.2774C124.04 18.9482 124.264 18.6938 124.414 18.5142C124.548 18.3796 124.653 18.3122 124.728 18.3122C124.788 18.3122 124.818 18.3421 124.818 18.402C124.818 18.5217 124.758 18.6639 124.638 18.8285C124.458 19.0529 124.189 19.3447 123.83 19.7038C123.486 20.0629 123.104 20.4295 122.685 20.8036C122.281 21.1628 121.892 21.4695 121.518 21.7239C121.159 21.9633 120.89 22.083 120.71 22.083C119.827 22.083 119.386 21.5668 119.386 20.5343C119.386 19.9507 119.655 19.1876 120.194 18.2449C120.403 17.8858 120.62 17.5266 120.845 17.1675C121.069 16.8084 121.294 16.4493 121.518 16.0901C119.603 17.0478 117.867 18.4619 116.311 20.3323C116.116 20.6016 115.914 20.8934 115.705 21.2076C115.495 21.5069 115.308 21.7613 115.144 21.9708C114.979 22.1803 114.859 22.285 114.785 22.285ZM124.974 22.4646C124.495 22.4646 124.061 22.3149 123.672 22.0157C123.283 21.7014 123.089 21.2899 123.089 20.7812C123.089 19.7188 123.74 18.5067 125.042 17.1451C126.373 15.7684 127.563 15.0801 128.61 15.0801C128.954 15.0801 129.231 15.1774 129.441 15.3719C129.665 15.5515 129.777 15.7759 129.777 16.0453C129.777 16.8832 129.112 17.7062 127.78 18.5142C126.598 19.2325 125.603 19.5916 124.795 19.5916C124.675 19.5916 124.57 19.5766 124.48 19.5467C124.256 19.9507 124.144 20.3772 124.144 20.8261C124.144 21.6042 124.51 21.9932 125.244 21.9932C125.992 21.9932 126.957 21.492 128.139 20.4894C129.052 19.7562 129.83 18.9781 130.473 18.1551C130.608 17.9755 130.728 17.8858 130.832 17.8858C130.922 17.8858 130.967 17.9307 130.967 18.0204C130.967 18.1102 130.907 18.2374 130.787 18.402C130.369 18.9556 129.92 19.4644 129.441 19.9283C128.962 20.3921 128.446 20.8186 127.892 21.2076C126.74 22.0456 125.767 22.4646 124.974 22.4646ZM125.109 19.0978C125.677 19.0978 126.418 18.8135 127.331 18.2449C127.63 18.0354 127.922 17.8035 128.206 17.5491C128.506 17.2797 128.745 17.0104 128.925 16.7411C129.119 16.4717 129.216 16.2323 129.216 16.0228C129.216 15.8283 129.059 15.731 128.745 15.731C128.296 15.731 127.668 16.0677 126.86 16.7411C126.471 17.0703 126.096 17.4294 125.737 17.8184C125.378 18.2075 125.071 18.619 124.817 19.0529C124.907 19.0828 125.004 19.0978 125.109 19.0978ZM131.3 22.2177C130.866 22.2177 130.462 22.1129 130.088 21.9034C129.714 21.679 129.527 21.3124 129.527 20.8036C129.527 20.1004 129.774 19.2624 130.268 18.2898C130.776 17.3171 131.352 16.3071 131.996 15.2597C133.747 12.4166 134.989 10.9951 135.722 10.9951C135.871 10.9951 136.021 11.0549 136.171 11.1747C136.335 11.2794 136.425 11.3991 136.44 11.5338L134.869 13.6436C134.255 14.4666 133.702 15.2297 133.208 15.933C132.714 16.6213 132.288 17.2423 131.929 17.796C131.749 18.0803 131.547 18.402 131.322 18.7611C131.098 19.1202 130.896 19.4943 130.716 19.8834C130.552 20.2575 130.47 20.639 130.47 21.0281C130.47 21.2076 130.522 21.3722 130.627 21.5219C130.731 21.6566 130.918 21.7239 131.188 21.7239C131.667 21.7239 132.295 21.4695 133.073 20.9608C133.851 20.437 134.622 19.7188 135.385 18.806C135.46 18.7162 135.542 18.6339 135.632 18.5591C135.722 18.4843 135.797 18.4469 135.856 18.4469C135.931 18.4469 135.969 18.4918 135.969 18.5816C135.969 18.6265 135.916 18.7162 135.812 18.8509C135.722 18.9706 135.647 19.0679 135.587 19.1427L135.048 19.7487C134.749 20.0779 134.39 20.437 133.971 20.8261C133.567 21.2151 133.133 21.5443 132.669 21.8137C132.22 22.083 131.764 22.2177 131.3 22.2177ZM145.764 24.3051C145.15 24.3051 144.387 23.9385 143.474 23.2053C142.831 23.1005 142.277 22.9584 141.814 22.7788C141.365 22.6142 140.991 22.4122 140.691 22.1728C140.272 21.8137 139.906 21.3348 139.591 20.7363C139.277 20.1378 139.12 19.5617 139.12 19.008C139.12 18.589 139.217 18.215 139.412 17.8858C139.861 17.0927 140.429 16.6962 141.118 16.6962C141.641 16.6962 141.948 17.1376 142.038 18.0204C142.143 18.8434 142.225 19.5018 142.285 19.9956C142.36 20.4744 142.42 20.7887 142.464 20.9383C142.689 21.6715 143.07 22.2925 143.609 22.8013C144.238 22.9359 144.918 23.0033 145.652 23.0033C147.268 23.0033 148.816 22.6965 150.298 22.083C150.926 21.8137 151.54 21.462 152.138 21.0281C152.737 20.5941 153.231 20.1153 153.62 19.5916C154.009 19.0679 154.203 18.5591 154.203 18.0653C154.203 17.362 153.582 16.8159 152.34 16.4268L148.39 15.529C147.582 15.3495 146.931 15.0352 146.437 14.5863C145.958 14.1225 145.719 13.5987 145.719 13.0152C145.719 12.1173 146.28 11.2195 147.402 10.3217C147.971 9.85787 148.637 9.46882 149.4 9.15459C150.163 8.82539 150.964 8.57849 151.802 8.4139C152.655 8.23433 153.47 8.14455 154.248 8.14455C155.355 8.14455 156.298 8.31663 157.076 8.66079C157.869 9.00495 158.363 9.50623 158.558 10.1646C158.603 10.3143 158.625 10.4789 158.625 10.6584C158.625 11.5712 158.169 12.2071 157.256 12.5663C156.702 12.7907 156.231 12.9029 155.842 12.9029C155.602 12.9029 155.415 12.858 155.281 12.7683C155.251 12.7383 155.236 12.7009 155.236 12.656C155.236 12.5513 155.445 12.4914 155.864 12.4765C156.119 12.4615 156.328 12.4391 156.493 12.4091C156.657 12.3792 156.777 12.3493 156.852 12.3194C157.42 12.0201 157.705 11.5787 157.705 10.9951C157.705 10.6958 157.622 10.3816 157.458 10.0524C156.994 9.19948 155.834 8.77302 153.979 8.77302C153.305 8.77302 152.61 8.84784 151.891 8.99747C151.173 9.13214 150.492 9.34163 149.849 9.62594C149.205 9.89528 148.659 10.2394 148.21 10.6584C147.432 11.3767 147.043 12.0201 147.043 12.5887C147.043 13.0226 147.253 13.4117 147.672 13.7558C148.106 14.085 148.757 14.3319 149.624 14.4965L152.273 14.9903C153.29 15.1849 154.113 15.4766 154.742 15.8657C155.37 16.2398 155.685 16.8159 155.685 17.594C155.685 18.2823 155.513 18.9257 155.168 19.5243C154.824 20.1228 154.36 20.6615 153.777 21.1403C153.208 21.6042 152.557 21.9932 151.824 22.3075C150.163 23.0407 148.203 23.4073 145.943 23.4073C145.659 23.4073 145.375 23.3998 145.091 23.3848C144.806 23.3699 144.529 23.3474 144.26 23.3175C144.47 23.4372 144.731 23.5569 145.046 23.6766C145.375 23.7963 145.749 23.9086 146.168 24.0133C146.213 24.0283 146.235 24.0582 146.235 24.1031C146.235 24.2377 146.078 24.3051 145.764 24.3051ZM142.801 22.5768C142.397 22.1279 142.083 21.664 141.858 21.1852C141.529 20.437 141.282 19.5168 141.118 18.4244C140.998 17.6314 140.871 17.2349 140.736 17.2349C140.616 17.2349 140.452 17.3246 140.242 17.5042C140.048 17.6838 139.951 18.0653 139.951 18.6489C139.951 19.7861 140.355 20.7737 141.163 21.6117C141.567 22.0306 142.113 22.3524 142.801 22.5768ZM157.796 22.285C157.436 22.285 157.077 22.1578 156.718 21.9034C156.359 21.6491 156.157 21.3498 156.112 21.0056C155.963 19.8535 156.688 18.4843 158.289 16.8982C159.875 15.312 161.304 14.519 162.576 14.519C162.921 14.519 163.19 14.6013 163.384 14.7659C163.489 14.8706 163.564 15.0128 163.609 15.1923C163.669 15.3719 163.714 15.4617 163.744 15.4617C163.803 15.4617 163.856 15.4542 163.901 15.4392C163.946 15.4093 163.998 15.3943 164.058 15.3943C164.237 15.3943 164.394 15.4617 164.529 15.5964C164.664 15.731 164.739 15.8507 164.754 15.9555C164.769 15.9854 164.29 16.7261 163.317 18.1775C162.344 19.5991 161.903 20.5642 161.993 21.073C162.068 21.4171 162.232 21.5892 162.487 21.5892C163.265 21.5892 164.686 20.3024 166.751 17.7286C166.796 17.6688 166.841 17.6389 166.886 17.6389C166.961 17.6389 166.998 17.6912 166.998 17.796C166.998 17.9157 166.931 18.0653 166.796 18.2449C164.896 20.8036 163.437 22.083 162.419 22.083C162.285 22.083 162.157 22.0606 162.038 22.0157C161.379 21.7613 161.05 21.2675 161.05 20.5343C161.05 20.2799 161.08 20.0255 161.14 19.7712L159.748 21.1179C159.329 21.5368 158.948 21.8361 158.604 22.0157C158.274 22.1952 158.005 22.285 157.796 22.285ZM157.594 21.7912C158.461 21.7912 159.644 20.841 161.14 18.9407L163.519 15.6637C163.399 15.4542 163.205 15.3495 162.935 15.3495C162.023 15.3495 160.788 16.0827 159.232 17.5491C157.616 19.0454 156.89 20.2799 157.055 21.2525C157.13 21.6117 157.309 21.7912 157.594 21.7912ZM170.839 22.2177C170.48 22.2177 170.3 22.0157 170.3 21.6117C170.465 20.7737 170.801 19.831 171.31 18.7836C171.549 18.2748 171.789 17.7735 172.028 17.2797C172.283 16.7859 172.53 16.2847 172.769 15.7759C172.215 16.15 171.662 16.569 171.108 17.0328C170.554 17.4817 170.016 17.9905 169.492 18.5591C168.878 19.2175 168.168 20.0629 167.36 21.0954C166.776 21.8286 166.439 22.1952 166.35 22.1952C166.14 22.1952 165.968 22.098 165.833 21.9034C165.699 21.7089 165.631 21.5443 165.631 21.4097C165.631 21.2151 165.803 20.7139 166.148 19.9058C166.252 19.6514 166.357 19.4046 166.462 19.1651C166.582 18.9108 166.694 18.6639 166.799 18.4244L165.452 19.8385C165.422 19.8684 165.332 19.9582 165.182 20.1078C165.033 20.2575 164.913 20.3323 164.823 20.3323C164.749 20.3323 164.711 20.2799 164.711 20.1752C164.711 20.1452 164.726 20.1078 164.756 20.0629C164.771 20.0031 164.816 19.9358 164.891 19.8609C165.115 19.6365 165.347 19.3971 165.586 19.1427C165.826 18.8883 166.073 18.5965 166.327 18.2673C166.522 18.013 166.799 17.6389 167.158 17.1451C167.532 16.6363 167.988 16.0004 168.527 15.2372C168.691 15.0128 168.923 14.9006 169.223 14.9006C169.522 14.9006 169.671 15.0427 169.671 15.327C169.671 15.4318 169.29 16.1276 168.527 17.4144C168.138 18.1027 167.823 18.6639 167.584 19.0978C167.36 19.5317 167.217 19.8535 167.158 20.0629C167.487 19.7038 167.876 19.2998 168.325 18.8509C168.789 18.402 169.32 17.9007 169.918 17.3471C171.759 15.6412 172.971 14.7883 173.555 14.7883C173.719 14.7883 173.876 14.8407 174.026 14.9454C174.19 15.0502 174.273 15.1849 174.273 15.3495C174.273 15.4243 173.981 15.9704 173.397 16.988C172.829 18.0204 172.515 18.6339 172.455 18.8285C174.116 17.4369 174.946 16.7336 174.946 16.7186C176.353 15.6263 177.363 15.0801 177.976 15.0801C178.156 15.0801 178.32 15.14 178.47 15.2597C178.635 15.3644 178.717 15.4916 178.717 15.6412C178.717 15.6712 178.238 16.2996 177.28 17.5266C176.293 18.7686 175.739 19.7861 175.619 20.5792C175.56 21.1179 175.836 21.3872 176.45 21.3872C176.824 21.3872 177.348 21.1478 178.021 20.669C178.694 20.1901 179.398 19.5317 180.131 18.6938C180.221 18.589 180.318 18.4918 180.423 18.402C180.527 18.2973 180.617 18.2449 180.692 18.2449C180.782 18.2449 180.827 18.2823 180.827 18.3571C180.827 18.4619 180.759 18.5816 180.625 18.7162C180.236 19.1801 179.772 19.6589 179.233 20.1527C178.709 20.6465 178.186 21.0655 177.662 21.4097C177.138 21.7389 176.674 21.9034 176.27 21.9034C175.253 21.9034 174.744 21.4321 174.744 20.4894C174.744 20.1602 174.834 19.7786 175.013 19.3447C175.193 18.8958 175.373 18.4918 175.552 18.1327C175.986 17.2947 176.457 16.554 176.966 15.9106C176.487 16.15 175.986 16.4642 175.462 16.8533C174.954 17.2423 174.422 17.6987 173.869 18.2224C172.582 19.4794 171.699 20.7513 171.22 22.0381C171.145 22.1578 171.018 22.2177 170.839 22.2177ZM178.4 26.4149C177.771 26.0708 177.457 25.4199 177.457 24.4622C177.457 23.4297 178.302 21.664 179.993 19.1651C181.609 16.756 182.731 15.4542 183.36 15.2597C183.42 15.2447 183.472 15.2372 183.517 15.2372C183.562 15.2223 183.607 15.2148 183.652 15.2148C183.906 15.2148 184.033 15.4916 184.033 16.0453C184.138 15.9405 184.318 15.8432 184.572 15.7535C184.841 15.6487 185.111 15.5664 185.38 15.5066C185.664 15.4467 185.874 15.4093 186.008 15.3943C186.622 15.3644 187.131 15.5141 187.535 15.8432C187.954 16.1575 188.163 16.5765 188.163 17.1002C188.163 18.3122 187.437 19.4869 185.986 20.6241C184.669 21.6566 183.502 22.1728 182.485 22.1728C181.811 22.1728 181.347 22.1354 181.093 22.0606C180.734 21.9558 180.367 21.679 179.993 21.2301C179.829 21.3648 179.649 21.5967 179.454 21.9259C179.26 22.2401 179.08 22.5843 178.916 22.9584C178.736 23.3474 178.594 23.729 178.489 24.1031C178.37 24.4772 178.31 24.7914 178.31 25.0458C178.31 25.3002 178.362 25.5096 178.467 25.6742C178.557 25.8538 178.646 26.0184 178.736 26.168C178.736 26.183 178.744 26.1905 178.759 26.1905C178.759 26.2054 178.759 26.2129 178.759 26.2129C178.759 26.2877 178.721 26.3476 178.646 26.3925C178.557 26.4523 178.474 26.4598 178.4 26.4149ZM182.193 21.5443C183.031 21.5443 183.996 21.1179 185.088 20.265C186.375 19.2474 187.018 18.1177 187.018 16.8757C187.018 16.3071 186.667 16.0228 185.964 16.0228C185.32 16.0228 184.722 16.165 184.168 16.4493C184.018 16.5091 183.771 16.7036 183.427 17.0328C183.098 17.362 182.657 17.8109 182.103 18.3796C180.921 19.6066 180.33 20.3921 180.33 20.7363C180.33 21.0056 180.577 21.2226 181.07 21.3872C181.4 21.492 181.774 21.5443 182.193 21.5443ZM189.666 22.285C189.307 22.285 188.948 22.1578 188.589 21.9034C188.229 21.6491 188.027 21.3498 187.983 21.0056C187.833 19.8535 188.559 18.4843 190.16 16.8982C191.746 15.312 193.175 14.519 194.447 14.519C194.791 14.519 195.06 14.6013 195.255 14.7659C195.36 14.8706 195.434 15.0128 195.479 15.1923C195.539 15.3719 195.584 15.4617 195.614 15.4617C195.674 15.4617 195.726 15.4542 195.771 15.4392C195.816 15.4093 195.868 15.3943 195.928 15.3943C196.108 15.3943 196.265 15.4617 196.399 15.5964C196.534 15.731 196.609 15.8507 196.624 15.9555C196.639 15.9854 196.16 16.7261 195.187 18.1775C194.215 19.5991 193.773 20.5642 193.863 21.073C193.938 21.4171 194.103 21.5892 194.357 21.5892C195.135 21.5892 196.557 20.3024 198.622 17.7286C198.666 17.6688 198.711 17.6389 198.756 17.6389C198.831 17.6389 198.868 17.6912 198.868 17.796C198.868 17.9157 198.801 18.0653 198.666 18.2449C196.766 20.8036 195.307 22.083 194.29 22.083C194.155 22.083 194.028 22.0606 193.908 22.0157C193.25 21.7613 192.92 21.2675 192.92 20.5343C192.92 20.2799 192.95 20.0255 193.01 19.7712L191.619 21.1179C191.2 21.5368 190.818 21.8361 190.474 22.0157C190.145 22.1952 189.875 22.285 189.666 22.285ZM189.464 21.7912C190.332 21.7912 191.514 20.841 193.01 18.9407L195.389 15.6637C195.27 15.4542 195.075 15.3495 194.806 15.3495C193.893 15.3495 192.659 16.0827 191.102 17.5491C189.486 19.0454 188.761 20.2799 188.925 21.2525C189 21.6117 189.18 21.7912 189.464 21.7912ZM202.372 14.4516C202.118 14.4516 201.894 14.3693 201.699 14.2048C201.519 14.0402 201.43 13.8531 201.43 13.6436C201.43 13.2246 201.714 13.0152 202.283 13.0152C202.492 13.0152 202.702 13.09 202.911 13.2396C203.121 13.3743 203.225 13.5464 203.225 13.7558C203.225 13.9354 203.128 14.1 202.933 14.2496C202.739 14.3843 202.552 14.4516 202.372 14.4516ZM198.22 22.4197C197.891 22.4197 197.621 22.3149 197.412 22.1055C197.188 21.881 197.075 21.492 197.075 20.9383C197.075 20.6241 197.15 20.265 197.3 19.8609C197.434 19.442 197.607 19.023 197.816 18.604C198.04 18.185 198.257 17.8109 198.467 17.4817C199.305 16.1201 199.993 15.4318 200.532 15.4168C200.667 15.4168 200.831 15.4766 201.026 15.5964C201.22 15.7011 201.317 15.8208 201.317 15.9555C201.317 15.9555 200.749 16.6887 199.612 18.1551C198.489 19.6066 197.928 20.639 197.928 21.2525C197.928 21.7314 198.115 21.9708 198.489 21.9708C198.729 21.9708 199.036 21.8735 199.41 21.679C199.799 21.4695 200.203 21.2076 200.622 20.8934C201.041 20.5792 201.437 20.2425 201.811 19.8834C202.2 19.5243 202.515 19.1951 202.754 18.8958C202.904 18.7013 203.031 18.5666 203.136 18.4918C203.255 18.417 203.33 18.3796 203.36 18.3796C203.42 18.3796 203.45 18.4244 203.45 18.5142C203.45 18.589 203.36 18.7387 203.18 18.9631C203.016 19.1876 202.784 19.4494 202.485 19.7487C202.125 20.1078 201.729 20.4969 201.295 20.9159C200.861 21.3348 200.39 21.694 199.881 21.9932C199.372 22.2775 198.819 22.4197 198.22 22.4197ZM203.44 22.2177C203.066 22.2177 202.775 22.0456 202.565 21.7014C202.356 21.3423 202.251 20.9982 202.251 20.669C202.251 19.7712 202.902 18.5142 204.204 16.8982C205.52 15.2672 206.583 14.4516 207.391 14.4516C208.154 14.4516 208.535 14.8557 208.535 15.6637C208.535 15.7834 208.521 15.9106 208.491 16.0453C208.476 16.1799 208.453 16.3221 208.423 16.4717C208.453 16.5166 208.528 16.5391 208.648 16.5391C209.052 16.5391 209.531 16.3969 210.084 16.1126C210.069 16.367 209.478 16.7336 208.311 17.2124C208.476 17.7062 207.982 18.6489 206.83 20.0405C205.648 21.492 204.638 22.2177 203.8 22.2177H203.44ZM203.844 21.5443C204.488 21.5443 205.311 20.9533 206.313 19.7712C207.286 18.619 207.772 17.7885 207.772 17.2797C207.533 17.1451 207.234 16.8009 206.875 16.2473C206.366 16.2473 205.633 16.8608 204.675 18.0878C203.732 19.2848 203.276 20.2051 203.306 20.8485C203.321 21.3124 203.5 21.5443 203.844 21.5443ZM214.741 22.285C214.293 22.285 213.911 22.1653 213.597 21.9259C213.282 21.6715 213.103 21.3648 213.058 21.0056C212.998 20.5268 213.065 20.048 213.26 19.5691C213.47 19.0754 213.746 18.604 214.09 18.1551C214.45 17.7062 214.831 17.2872 215.235 16.8982C216.821 15.312 218.25 14.519 219.522 14.519C219.956 14.519 220.248 14.6312 220.398 14.8557C220.457 14.9305 220.525 15.1026 220.6 15.3719C222.276 12.6486 223.443 11.2869 224.101 11.2869C224.251 11.2869 224.408 11.3243 224.572 11.3991C224.737 11.4739 224.819 11.5712 224.819 11.6909C224.819 11.7657 224.782 11.863 224.707 11.9827C224.258 12.5363 223.809 13.09 223.36 13.6436C222.911 14.1823 222.47 14.7285 222.036 15.2821C221.303 16.2099 220.712 17.0179 220.263 17.7062C219.814 18.3945 219.492 18.9781 219.298 19.4569C219.238 19.6066 219.178 19.7936 219.118 20.0181C219.073 20.2275 219.051 20.4445 219.051 20.669C219.051 20.9533 219.111 21.2002 219.23 21.4097C219.35 21.6191 219.567 21.7239 219.881 21.7239C220.375 21.7239 220.981 21.4845 221.699 21.0056C222.418 20.5268 223.256 19.7412 224.213 18.6489C224.273 18.589 224.325 18.5367 224.37 18.4918C224.43 18.4469 224.49 18.417 224.55 18.402C224.685 18.3721 224.752 18.402 224.752 18.4918C224.752 18.5367 224.707 18.619 224.617 18.7387C224.153 19.2923 223.637 19.8385 223.069 20.3772C222.5 20.9159 221.916 21.3648 221.318 21.7239C220.734 22.068 220.188 22.2401 219.679 22.2401C219.171 22.2401 218.811 22.068 218.602 21.7239C218.392 21.3797 218.288 20.9907 218.288 20.5567C218.288 20.1078 218.37 19.6963 218.535 19.3223L216.717 21.1403C216.313 21.5443 215.938 21.8361 215.594 22.0157C215.265 22.1952 214.981 22.285 214.741 22.285ZM214.539 21.7912C215.183 21.7912 216.253 20.9084 217.749 19.1427C217.824 19.0529 218.086 18.7237 218.535 18.1551C218.984 17.5715 219.619 16.7261 220.442 15.6188C220.338 15.4392 220.158 15.3495 219.904 15.3495C218.976 15.3495 217.734 16.0827 216.178 17.5491C214.711 18.9108 213.978 20.0555 213.978 20.9832C213.978 21.5219 214.165 21.7912 214.539 21.7912ZM224.86 22.4646C224.381 22.4646 223.947 22.3149 223.558 22.0157C223.169 21.7014 222.974 21.2899 222.974 20.7812C222.974 19.7188 223.625 18.5067 224.927 17.1451C226.259 15.7684 227.448 15.0801 228.496 15.0801C228.84 15.0801 229.117 15.1774 229.326 15.3719C229.551 15.5515 229.663 15.7759 229.663 16.0453C229.663 16.8832 228.997 17.7062 227.665 18.5142C226.483 19.2325 225.488 19.5916 224.68 19.5916C224.56 19.5916 224.456 19.5766 224.366 19.5467C224.141 19.9507 224.029 20.3772 224.029 20.8261C224.029 21.6042 224.396 21.9932 225.129 21.9932C225.877 21.9932 226.842 21.492 228.024 20.4894C228.937 19.7562 229.715 18.9781 230.359 18.1551C230.493 17.9755 230.613 17.8858 230.718 17.8858C230.808 17.8858 230.852 17.9307 230.852 18.0204C230.852 18.1102 230.793 18.2374 230.673 18.402C230.254 18.9556 229.805 19.4644 229.326 19.9283C228.847 20.3921 228.331 20.8186 227.777 21.2076C226.625 22.0456 225.653 22.4646 224.86 22.4646ZM224.994 19.0978C225.563 19.0978 226.304 18.8135 227.216 18.2449C227.516 18.0354 227.807 17.8035 228.092 17.5491C228.391 17.2797 228.63 17.0104 228.81 16.7411C229.005 16.4717 229.102 16.2323 229.102 16.0228C229.102 15.8283 228.945 15.731 228.63 15.731C228.182 15.731 227.553 16.0677 226.745 16.7411C226.356 17.0703 225.982 17.4294 225.623 17.8184C225.264 18.2075 224.957 18.619 224.703 19.0529C224.792 19.0828 224.89 19.0978 224.994 19.0978ZM239.428 23.4971C239.264 23.4971 239.099 23.4971 238.935 23.4971C238.77 23.4971 238.605 23.4896 238.441 23.4746C237.259 23.4148 236.301 23.0257 235.568 22.3075C234.835 21.5892 234.468 20.6091 234.468 19.3671C234.468 18.2898 234.775 17.0703 235.388 15.7086C236.166 13.9878 237.633 12.3568 239.787 10.8155C241.029 9.93269 242.354 9.2294 243.76 8.70568C245.167 8.167 246.588 7.89766 248.025 7.89766C248.863 7.89766 249.626 8.00988 250.314 8.23433C251.017 8.45879 251.571 8.79546 251.975 9.24437C252.394 9.69327 252.604 10.2619 252.604 10.9502C252.604 11.1896 252.574 11.444 252.514 11.7133C252.454 11.9677 252.357 12.2221 252.222 12.4765L251.975 12.9478C252.095 13.3518 252.155 13.7633 252.155 14.1823C252.155 16.0527 251.197 17.8409 249.282 19.5467C246.349 22.1803 243.064 23.4971 239.428 23.4971ZM239.294 23.0482C242.241 23.0482 245.047 21.8586 247.711 19.4794C249.626 17.7735 250.658 16.15 250.808 14.6088C250.03 15.4617 248.683 16.4792 246.768 17.6613L246.588 17.7062C246.469 17.7062 246.663 17.4967 247.172 17.0777L248.429 16.0453C248.968 15.5964 249.431 15.1774 249.82 14.7883C250.209 14.3993 250.531 14.0476 250.786 13.7334C250.681 12.8954 250.277 12.1772 249.574 11.5787C248.975 11.0549 248.257 10.6659 247.419 10.4115C247 10.3068 246.311 10.2394 245.354 10.2095C244.561 10.1796 244.164 10.1422 244.164 10.0973C244.164 10.0823 244.179 10.0599 244.209 10.0299C244.912 9.8055 245.586 9.69327 246.229 9.69327C246.528 9.69327 246.858 9.71572 247.217 9.76061C247.576 9.8055 247.965 9.88031 248.384 9.98506C249.955 10.3591 251.055 11.1223 251.683 12.2745C251.833 11.9153 251.908 11.5487 251.908 11.1747C251.908 10.5612 251.728 10.0449 251.369 9.62594C251.025 9.20696 250.554 8.89273 249.955 8.68324C249.372 8.47375 248.721 8.36901 248.002 8.36901C245.743 8.36901 243.573 9.09473 241.493 10.5462C239.563 11.8929 238.037 13.6287 236.914 15.7535C236.091 17.2947 235.68 18.6788 235.68 19.9058C235.68 21.881 236.675 22.921 238.665 23.0257C238.77 23.0407 238.875 23.0482 238.979 23.0482C239.084 23.0482 239.189 23.0482 239.294 23.0482ZM253.236 22.2177C252.802 22.2177 252.398 22.1129 252.024 21.9034C251.65 21.679 251.463 21.3124 251.463 20.8036C251.463 20.1004 251.71 19.2624 252.204 18.2898C252.712 17.3171 253.288 16.3071 253.932 15.2597C255.683 12.4166 256.925 10.9951 257.658 10.9951C257.807 10.9951 257.957 11.0549 258.107 11.1747C258.271 11.2794 258.361 11.3991 258.376 11.5338L256.805 13.6436C256.191 14.4666 255.638 15.2297 255.144 15.933C254.65 16.6213 254.224 17.2423 253.865 17.796C253.685 18.0803 253.483 18.402 253.259 18.7611C253.034 19.1202 252.832 19.4943 252.653 19.8834C252.488 20.2575 252.406 20.639 252.406 21.0281C252.406 21.2076 252.458 21.3722 252.563 21.5219C252.668 21.6566 252.855 21.7239 253.124 21.7239C253.603 21.7239 254.231 21.4695 255.009 20.9608C255.787 20.437 256.558 19.7188 257.321 18.806C257.396 18.7162 257.478 18.6339 257.568 18.5591C257.658 18.4843 257.733 18.4469 257.792 18.4469C257.867 18.4469 257.905 18.4918 257.905 18.5816C257.905 18.6265 257.852 18.7162 257.748 18.8509C257.658 18.9706 257.583 19.0679 257.523 19.1427L256.984 19.7487C256.685 20.0779 256.326 20.437 255.907 20.8261C255.503 21.2151 255.069 21.5443 254.605 21.8137C254.156 22.083 253.7 22.2177 253.236 22.2177ZM261.949 14.4516C261.694 14.4516 261.47 14.3693 261.275 14.2048C261.096 14.0402 261.006 13.8531 261.006 13.6436C261.006 13.2246 261.29 13.0152 261.859 13.0152C262.068 13.0152 262.278 13.09 262.487 13.2396C262.697 13.3743 262.801 13.5464 262.801 13.7558C262.801 13.9354 262.704 14.1 262.51 14.2496C262.315 14.3843 262.128 14.4516 261.949 14.4516ZM257.796 22.4197C257.467 22.4197 257.198 22.3149 256.988 22.1055C256.764 21.881 256.651 21.492 256.651 20.9383C256.651 20.6241 256.726 20.265 256.876 19.8609C257.011 19.442 257.183 19.023 257.392 18.604C257.617 18.185 257.834 17.8109 258.043 17.4817C258.881 16.1201 259.569 15.4318 260.108 15.4168C260.243 15.4168 260.407 15.4766 260.602 15.5964C260.796 15.7011 260.894 15.8208 260.894 15.9555C260.894 15.9555 260.325 16.6887 259.188 18.1551C258.066 19.6066 257.504 20.639 257.504 21.2525C257.504 21.7314 257.691 21.9708 258.066 21.9708C258.305 21.9708 258.612 21.8735 258.986 21.679C259.375 21.4695 259.779 21.2076 260.198 20.8934C260.617 20.5792 261.013 20.2425 261.387 19.8834C261.776 19.5243 262.091 19.1951 262.33 18.8958C262.48 18.7013 262.607 18.5666 262.712 18.4918C262.831 18.417 262.906 18.3796 262.936 18.3796C262.996 18.3796 263.026 18.4244 263.026 18.5142C263.026 18.589 262.936 18.7387 262.757 18.9631C262.592 19.1876 262.36 19.4494 262.061 19.7487C261.702 20.1078 261.305 20.4969 260.871 20.9159C260.437 21.3348 259.966 21.694 259.457 21.9932C258.948 22.2775 258.395 22.4197 257.796 22.4197ZM262.792 22.2401C262.702 22.2401 262.575 22.2027 262.411 22.1279C262.246 22.0381 262.096 21.9409 261.962 21.8361C261.827 21.7164 261.752 21.6117 261.737 21.5219C261.722 21.4022 261.805 21.0655 261.984 20.5118C262.149 19.9432 262.418 19.1726 262.792 18.2C263.166 17.2124 263.48 16.4493 263.735 15.9106C263.989 15.3719 264.176 15.0502 264.296 14.9454C264.356 14.8856 264.438 14.8557 264.543 14.8557C264.707 14.8557 264.865 14.9305 265.014 15.0801C265.164 15.2148 265.246 15.3794 265.261 15.5739C265.261 15.5889 264.887 16.4717 264.139 18.2224C263.406 19.9133 263.062 20.9233 263.106 21.2525C263.765 21.043 264.865 20.3024 266.406 19.0305C267.334 18.2524 267.999 17.5491 268.403 16.9206C268.822 16.2772 269.032 15.7011 269.032 15.1923C269.032 14.8931 268.957 14.6237 268.807 14.3843C268.673 14.1299 268.418 13.9204 268.044 13.7558C267.94 13.711 267.887 13.6436 267.887 13.5538C267.887 13.4192 267.97 13.3518 268.134 13.3518C268.568 13.3518 268.942 13.494 269.256 13.7783C269.586 14.0626 269.75 14.4891 269.75 15.0577C269.75 15.6562 269.496 16.337 268.987 17.1002C268.478 17.8484 267.753 18.6489 266.81 19.5018C265.987 20.235 265.239 20.8336 264.565 21.2974C263.907 21.7613 263.316 22.0755 262.792 22.2401ZM269.947 22.4646C269.468 22.4646 269.034 22.3149 268.645 22.0157C268.256 21.7014 268.062 21.2899 268.062 20.7812C268.062 19.7188 268.713 18.5067 270.015 17.1451C271.346 15.7684 272.536 15.0801 273.583 15.0801C273.928 15.0801 274.204 15.1774 274.414 15.3719C274.638 15.5515 274.751 15.7759 274.751 16.0453C274.751 16.8832 274.085 17.7062 272.753 18.5142C271.571 19.2325 270.576 19.5916 269.768 19.5916C269.648 19.5916 269.543 19.5766 269.453 19.5467C269.229 19.9507 269.117 20.3772 269.117 20.8261C269.117 21.6042 269.483 21.9932 270.217 21.9932C270.965 21.9932 271.93 21.492 273.112 20.4894C274.025 19.7562 274.803 18.9781 275.446 18.1551C275.581 17.9755 275.701 17.8858 275.805 17.8858C275.895 17.8858 275.94 17.9307 275.94 18.0204C275.94 18.1102 275.88 18.2374 275.761 18.402C275.342 18.9556 274.893 19.4644 274.414 19.9283C273.935 20.3921 273.419 20.8186 272.865 21.2076C271.713 22.0456 270.74 22.4646 269.947 22.4646ZM270.082 19.0978C270.651 19.0978 271.391 18.8135 272.304 18.2449C272.603 18.0354 272.895 17.8035 273.179 17.5491C273.479 17.2797 273.718 17.0104 273.898 16.7411C274.092 16.4717 274.189 16.2323 274.189 16.0228C274.189 15.8283 274.032 15.731 273.718 15.731C273.269 15.731 272.641 16.0677 271.833 16.7411C271.444 17.0703 271.07 17.4294 270.71 17.8184C270.351 18.2075 270.045 18.619 269.79 19.0529C269.88 19.0828 269.977 19.0978 270.082 19.0978ZM279.528 14.4516C279.273 14.4516 279.049 14.3693 278.854 14.2048C278.675 14.0402 278.585 13.8531 278.585 13.6436C278.585 13.2246 278.869 13.0152 279.438 13.0152C279.647 13.0152 279.857 13.09 280.066 13.2396C280.276 13.3743 280.381 13.5464 280.381 13.7558C280.381 13.9354 280.283 14.1 280.089 14.2496C279.894 14.3843 279.707 14.4516 279.528 14.4516ZM275.375 22.4197C275.046 22.4197 274.777 22.3149 274.567 22.1055C274.343 21.881 274.231 21.492 274.231 20.9383C274.231 20.6241 274.305 20.265 274.455 19.8609C274.59 19.442 274.762 19.023 274.971 18.604C275.196 18.185 275.413 17.8109 275.622 17.4817C276.46 16.1201 277.148 15.4318 277.687 15.4168C277.822 15.4168 277.986 15.4766 278.181 15.5964C278.375 15.7011 278.473 15.8208 278.473 15.9555C278.473 15.9555 277.904 16.6887 276.767 18.1551C275.645 19.6066 275.084 20.639 275.084 21.2525C275.084 21.7314 275.271 21.9708 275.645 21.9708C275.884 21.9708 276.191 21.8735 276.565 21.679C276.954 21.4695 277.358 21.2076 277.777 20.8934C278.196 20.5792 278.592 20.2425 278.967 19.8834C279.356 19.5243 279.67 19.1951 279.909 18.8958C280.059 18.7013 280.186 18.5666 280.291 18.4918C280.411 18.417 280.485 18.3796 280.515 18.3796C280.575 18.3796 280.605 18.4244 280.605 18.5142C280.605 18.589 280.515 18.7387 280.336 18.9631C280.171 19.1876 279.939 19.4494 279.64 19.7487C279.281 20.1078 278.884 20.4969 278.45 20.9159C278.016 21.3348 277.545 21.694 277.036 21.9932C276.527 22.2775 275.974 22.4197 275.375 22.4197ZM284.209 22.285C283.566 22.285 283.125 22.1204 282.885 21.7912C282.646 21.4471 282.526 20.9907 282.526 20.4221C282.526 19.7936 282.721 19.0454 283.11 18.1775C283.259 17.8334 283.416 17.5266 283.581 17.2573C283.746 16.973 283.918 16.7111 284.097 16.4717C284.037 16.4867 283.985 16.4942 283.94 16.4942C283.895 16.4942 283.85 16.4942 283.805 16.4942C283.446 16.4942 283.147 16.2398 282.908 15.731L281.247 17.8858C280.364 19.0379 279.825 19.614 279.631 19.614C279.556 19.614 279.518 19.5841 279.518 19.5243C279.518 19.4494 279.556 19.3522 279.631 19.2325C279.675 19.1427 279.765 19.023 279.9 18.8733C280.469 18.215 280.992 17.564 281.471 16.9206C281.95 16.2772 282.346 15.6487 282.661 15.0352C283.005 13.7334 283.439 13.0825 283.963 13.0825C284.307 13.0825 284.479 13.2396 284.479 13.5538C284.479 13.8381 284.292 14.2122 283.918 14.6761C283.559 15.14 283.379 15.3794 283.379 15.3943C283.379 15.7086 283.611 15.8657 284.075 15.8657C284.344 15.8657 284.643 15.7684 284.973 15.5739L285.556 15.2148C285.586 15.1998 285.631 15.1923 285.691 15.1923C285.87 15.1923 286.027 15.2672 286.162 15.4168C286.297 15.5664 286.342 15.7011 286.297 15.8208L284.748 17.7735C283.79 19.0005 283.312 19.9881 283.312 20.7363C283.312 21.4097 283.641 21.7463 284.299 21.7463C284.748 21.7463 285.227 21.6117 285.736 21.3423C286.259 21.073 286.761 20.7438 287.24 20.3547C287.733 19.9507 288.145 19.5617 288.474 19.1876L289.013 18.5591C289.043 18.5292 289.08 18.4918 289.125 18.4469C289.17 18.402 289.207 18.3796 289.237 18.3796C289.342 18.3796 289.394 18.4319 289.394 18.5367C289.394 18.5666 289.379 18.619 289.349 18.6938C289.319 18.7686 289.267 18.8509 289.192 18.9407L288.474 19.7487C288.13 20.1378 287.703 20.5343 287.195 20.9383C286.701 21.3274 286.185 21.6491 285.646 21.9034C285.122 22.1578 284.643 22.285 284.209 22.285ZM289.968 22.285C289.609 22.285 289.25 22.1578 288.89 21.9034C288.531 21.6491 288.329 21.3498 288.284 21.0056C288.135 19.8535 288.861 18.4843 290.462 16.8982C292.048 15.312 293.477 14.519 294.749 14.519C295.093 14.519 295.362 14.6013 295.557 14.7659C295.661 14.8706 295.736 15.0128 295.781 15.1923C295.841 15.3719 295.886 15.4617 295.916 15.4617C295.976 15.4617 296.028 15.4542 296.073 15.4392C296.118 15.4093 296.17 15.3943 296.23 15.3943C296.41 15.3943 296.567 15.4617 296.701 15.5964C296.836 15.731 296.911 15.8507 296.926 15.9555C296.941 15.9854 296.462 16.7261 295.489 18.1775C294.517 19.5991 294.075 20.5642 294.165 21.073C294.24 21.4171 294.404 21.5892 294.659 21.5892C295.437 21.5892 296.859 20.3024 298.923 17.7286C298.968 17.6688 299.013 17.6389 299.058 17.6389C299.133 17.6389 299.17 17.6912 299.17 17.796C299.17 17.9157 299.103 18.0653 298.968 18.2449C297.068 20.8036 295.609 22.083 294.592 22.083C294.457 22.083 294.33 22.0606 294.21 22.0157C293.552 21.7613 293.222 21.2675 293.222 20.5343C293.222 20.2799 293.252 20.0255 293.312 19.7712L291.921 21.1179C291.502 21.5368 291.12 21.8361 290.776 22.0157C290.447 22.1952 290.177 22.285 289.968 22.285ZM289.766 21.7912C290.634 21.7912 291.816 20.841 293.312 18.9407L295.691 15.6637C295.572 15.4542 295.377 15.3495 295.108 15.3495C294.195 15.3495 292.961 16.0827 291.404 17.5491C289.788 19.0454 289.063 20.2799 289.227 21.2525C289.302 21.6117 289.482 21.7912 289.766 21.7912ZM87.3109 32.9732C88.3573 32.9732 89.1773 33.2231 89.7708 33.7228C90.3643 34.2226 90.661 34.9098 90.661 35.7845C90.661 36.6591 90.3643 37.3463 89.7708 37.8461C89.1773 38.3381 88.3573 38.584 87.3109 38.584H85.1087V41.1728H84.2419V32.9732H87.3109ZM87.2874 37.8227C88.0996 37.8227 88.7204 37.6469 89.1499 37.2955C89.5794 36.9363 89.7942 36.4326 89.7942 35.7845C89.7942 35.1207 89.5794 34.6131 89.1499 34.2617C88.7204 33.9025 88.0996 33.7228 87.2874 33.7228H85.1087V37.8227H87.2874ZM94.1256 41.2314C93.6258 41.2314 93.1456 41.1611 92.6848 41.0205C92.2319 40.8721 91.8766 40.6886 91.6189 40.47L91.9937 39.814C92.2514 40.017 92.5755 40.1849 92.966 40.3177C93.3564 40.4426 93.7625 40.5051 94.1842 40.5051C94.7464 40.5051 95.1603 40.4192 95.4258 40.2474C95.6992 40.0678 95.8358 39.8179 95.8358 39.4977C95.8358 39.2713 95.7616 39.0956 95.6133 38.9706C95.4649 38.8378 95.2775 38.7402 95.051 38.6778C94.8245 38.6075 94.5239 38.5411 94.149 38.4786C93.6493 38.3849 93.2471 38.2912 92.9425 38.1975C92.638 38.096 92.3764 37.9281 92.1577 37.6938C91.9469 37.4595 91.8414 37.1354 91.8414 36.7216C91.8414 36.2062 92.0562 35.7845 92.4857 35.4565C92.9152 35.1285 93.5126 34.9645 94.2779 34.9645C94.6762 34.9645 95.0744 35.0192 95.4727 35.1285C95.871 35.23 96.199 35.3667 96.4567 35.5385L96.0935 36.2062C95.5859 35.8547 94.9807 35.679 94.2779 35.679C93.7469 35.679 93.3447 35.7727 93.0714 35.9602C92.8059 36.1476 92.6731 36.3936 92.6731 36.6981C92.6731 36.9324 92.7473 37.1198 92.8957 37.2604C93.0519 37.401 93.2432 37.5064 93.4696 37.5767C93.6961 37.6391 94.0085 37.7055 94.4067 37.7758C94.8987 37.8695 95.2931 37.9632 95.5898 38.0569C95.8866 38.1506 96.1404 38.3107 96.3512 38.5372C96.5621 38.7637 96.6675 39.076 96.6675 39.4743C96.6675 40.0131 96.441 40.4426 95.9881 40.7628C95.543 41.0752 94.9222 41.2314 94.1256 41.2314ZM98.205 35.0114H99.0367V41.1728H98.205V35.0114ZM98.6267 33.6643C98.4549 33.6643 98.3105 33.6057 98.1933 33.4886C98.0762 33.3714 98.0176 33.2309 98.0176 33.0669C98.0176 32.9107 98.0762 32.774 98.1933 32.6569C98.3105 32.5398 98.4549 32.4812 98.6267 32.4812C98.7985 32.4812 98.943 32.5398 99.0601 32.6569C99.1773 32.7662 99.2358 32.899 99.2358 33.0552C99.2358 33.227 99.1773 33.3714 99.0601 33.4886C98.943 33.6057 98.7985 33.6643 98.6267 33.6643ZM103.904 41.2314C103.295 41.2314 102.749 41.0986 102.264 40.8331C101.788 40.5676 101.413 40.1966 101.14 39.7203C100.867 39.2361 100.73 38.6934 100.73 38.0921C100.73 37.4908 100.867 36.9519 101.14 36.4756C101.413 35.9992 101.788 35.6283 102.264 35.3628C102.749 35.0973 103.295 34.9645 103.904 34.9645C104.435 34.9645 104.908 35.0699 105.322 35.2808C105.743 35.4838 106.075 35.7845 106.317 36.1827L105.697 36.6044C105.494 36.2999 105.236 36.0734 104.924 35.925C104.611 35.7688 104.271 35.6908 103.904 35.6908C103.459 35.6908 103.057 35.7923 102.698 35.9953C102.346 36.1905 102.069 36.4717 101.866 36.8387C101.671 37.2057 101.573 37.6235 101.573 38.0921C101.573 38.5684 101.671 38.9901 101.866 39.3572C102.069 39.7164 102.346 39.9975 102.698 40.2005C103.057 40.3958 103.459 40.4934 103.904 40.4934C104.271 40.4934 104.611 40.4192 104.924 40.2708C105.236 40.1225 105.494 39.896 105.697 39.5914L106.317 40.0131C106.075 40.4114 105.743 40.716 105.322 40.9268C104.9 41.1298 104.428 41.2314 103.904 41.2314ZM110.367 41.2314C109.773 41.2314 109.238 41.0986 108.762 40.8331C108.286 40.5598 107.911 40.1849 107.637 39.7086C107.364 39.2322 107.227 38.6934 107.227 38.0921C107.227 37.4908 107.364 36.9519 107.637 36.4756C107.911 35.9992 108.286 35.6283 108.762 35.3628C109.238 35.0973 109.773 34.9645 110.367 34.9645C110.96 34.9645 111.495 35.0973 111.972 35.3628C112.448 35.6283 112.819 35.9992 113.084 36.4756C113.358 36.9519 113.494 37.4908 113.494 38.0921C113.494 38.6934 113.358 39.2322 113.084 39.7086C112.819 40.1849 112.448 40.5598 111.972 40.8331C111.495 41.0986 110.96 41.2314 110.367 41.2314ZM110.367 40.4934C110.804 40.4934 111.195 40.3958 111.538 40.2005C111.89 39.9975 112.163 39.7125 112.358 39.3454C112.553 38.9784 112.651 38.5606 112.651 38.0921C112.651 37.6235 112.553 37.2057 112.358 36.8387C112.163 36.4717 111.89 36.1905 111.538 35.9953C111.195 35.7923 110.804 35.6908 110.367 35.6908C109.929 35.6908 109.535 35.7923 109.184 35.9953C108.84 36.1905 108.567 36.4717 108.364 36.8387C108.168 37.2057 108.071 37.6235 108.071 38.0921C108.071 38.5606 108.168 38.9784 108.364 39.3454C108.567 39.7125 108.84 39.9975 109.184 40.2005C109.535 40.3958 109.929 40.4934 110.367 40.4934ZM111.198 32.5983H112.311L110.414 34.0508H109.594L111.198 32.5983ZM116.926 41.2314C116.371 41.2314 115.942 41.0752 115.637 40.7628C115.341 40.4504 115.192 40.017 115.192 39.4626V32.4812H116.024V39.3923C116.024 39.7593 116.11 40.0405 116.282 40.2357C116.453 40.4231 116.711 40.5168 117.055 40.5168C117.273 40.5168 117.461 40.4817 117.617 40.4114L117.676 41.1025C117.433 41.1884 117.184 41.2314 116.926 41.2314ZM121.211 41.2314C120.618 41.2314 120.083 41.0986 119.606 40.8331C119.13 40.5598 118.755 40.1849 118.482 39.7086C118.208 39.2322 118.072 38.6934 118.072 38.0921C118.072 37.4908 118.208 36.9519 118.482 36.4756C118.755 35.9992 119.13 35.6283 119.606 35.3628C120.083 35.0973 120.618 34.9645 121.211 34.9645C121.805 34.9645 122.34 35.0973 122.816 35.3628C123.292 35.6283 123.663 35.9992 123.929 36.4756C124.202 36.9519 124.339 37.4908 124.339 38.0921C124.339 38.6934 124.202 39.2322 123.929 39.7086C123.663 40.1849 123.292 40.5598 122.816 40.8331C122.34 41.0986 121.805 41.2314 121.211 41.2314ZM121.211 40.4934C121.648 40.4934 122.039 40.3958 122.382 40.2005C122.734 39.9975 123.007 39.7125 123.202 39.3454C123.398 38.9784 123.495 38.5606 123.495 38.0921C123.495 37.6235 123.398 37.2057 123.202 36.8387C123.007 36.4717 122.734 36.1905 122.382 35.9953C122.039 35.7923 121.648 35.6908 121.211 35.6908C120.774 35.6908 120.379 35.7923 120.028 35.9953C119.684 36.1905 119.411 36.4717 119.208 36.8387C119.013 37.2057 118.915 37.6235 118.915 38.0921C118.915 38.5606 119.013 38.9784 119.208 39.3454C119.411 39.7125 119.684 39.9975 120.028 40.2005C120.379 40.3958 120.774 40.4934 121.211 40.4934ZM131.741 35.0114V40.4231C131.741 41.4695 131.484 42.2426 130.968 42.7424C130.461 43.25 129.691 43.5038 128.661 43.5038C128.09 43.5038 127.548 43.4179 127.032 43.2461C126.525 43.0821 126.111 42.8518 125.791 42.555L126.212 41.9225C126.509 42.188 126.868 42.3949 127.29 42.5433C127.72 42.6917 128.169 42.7659 128.637 42.7659C129.418 42.7659 129.992 42.5823 130.359 42.2153C130.726 41.8561 130.91 41.2938 130.91 40.5285V39.7437C130.652 40.1342 130.312 40.4309 129.89 40.634C129.477 40.837 129.016 40.9385 128.508 40.9385C127.93 40.9385 127.403 40.8136 126.927 40.5637C126.458 40.306 126.087 39.9507 125.814 39.4977C125.549 39.037 125.416 38.5177 125.416 37.9398C125.416 37.3619 125.549 36.8465 125.814 36.3936C126.087 35.9406 126.458 35.5892 126.927 35.3393C127.395 35.0894 127.923 34.9645 128.508 34.9645C129.031 34.9645 129.504 35.0699 129.926 35.2808C130.347 35.4916 130.687 35.7962 130.945 36.1944V35.0114H131.741ZM128.59 40.2005C129.035 40.2005 129.438 40.1068 129.797 39.9194C130.156 39.7242 130.433 39.4548 130.628 39.1112C130.831 38.7676 130.933 38.3771 130.933 37.9398C130.933 37.5025 130.831 37.1159 130.628 36.7801C130.433 36.4365 130.156 36.171 129.797 35.9836C129.445 35.7884 129.043 35.6908 128.59 35.6908C128.145 35.6908 127.743 35.7845 127.384 35.9719C127.032 36.1593 126.755 36.4248 126.552 36.7684C126.357 37.112 126.259 37.5025 126.259 37.9398C126.259 38.3771 126.357 38.7676 126.552 39.1112C126.755 39.4548 127.032 39.7242 127.384 39.9194C127.743 40.1068 128.145 40.2005 128.59 40.2005ZM139.69 35.0114V41.1728H138.893V39.9546C138.643 40.3684 138.311 40.6847 137.897 40.9034C137.491 41.122 137.031 41.2314 136.515 41.2314C135.937 41.2314 135.414 41.0986 134.946 40.8331C134.477 40.5676 134.11 40.1966 133.844 39.7203C133.579 39.2439 133.446 38.7012 133.446 38.0921C133.446 37.483 133.579 36.9402 133.844 36.4639C134.11 35.9875 134.477 35.6205 134.946 35.3628C135.414 35.0973 135.937 34.9645 136.515 34.9645C137.015 34.9645 137.464 35.0699 137.862 35.2808C138.268 35.4838 138.6 35.7845 138.858 36.1827V35.0114H139.69ZM136.585 40.4934C137.015 40.4934 137.401 40.3958 137.745 40.2005C138.097 39.9975 138.37 39.7125 138.565 39.3454C138.768 38.9784 138.87 38.5606 138.87 38.0921C138.87 37.6235 138.768 37.2057 138.565 36.8387C138.37 36.4717 138.097 36.1905 137.745 35.9953C137.401 35.7923 137.015 35.6908 136.585 35.6908C136.148 35.6908 135.754 35.7923 135.402 35.9953C135.059 36.1905 134.785 36.4717 134.582 36.8387C134.387 37.2057 134.29 37.6235 134.29 38.0921C134.29 38.5606 134.387 38.9784 134.582 39.3454C134.785 39.7125 135.059 39.9975 135.402 40.2005C135.754 40.3958 136.148 40.4934 136.585 40.4934ZM87.9225 61.2448C87.0905 61.2448 86.3385 61.0608 85.6665 60.6928C85.0025 60.3248 84.4785 59.8168 84.0945 59.1688C83.7185 58.5128 83.5305 57.7808 83.5305 56.9728C83.5305 56.1648 83.7185 55.4368 84.0945 54.7888C84.4785 54.1328 85.0065 53.6208 85.6785 53.2528C86.3505 52.8848 87.1025 52.7008 87.9345 52.7008C88.5585 52.7008 89.1345 52.8048 89.6625 53.0128C90.1905 53.2208 90.6385 53.5248 91.0065 53.9248L90.4425 54.4888C89.7865 53.8248 88.9585 53.4928 87.9585 53.4928C87.2945 53.4928 86.6905 53.6448 86.1465 53.9488C85.6025 54.2528 85.1745 54.6688 84.8625 55.1968C84.5585 55.7248 84.4065 56.3168 84.4065 56.9728C84.4065 57.6288 84.5585 58.2208 84.8625 58.7488C85.1745 59.2768 85.6025 59.6928 86.1465 59.9968C86.6905 60.3008 87.2945 60.4528 87.9585 60.4528C88.9665 60.4528 89.7945 60.1168 90.4425 59.4448L91.0065 60.0088C90.6385 60.4088 90.1865 60.7168 89.6505 60.9328C89.1225 61.1408 88.5465 61.2448 87.9225 61.2448ZM98.6355 61.1728L96.7155 58.4728C96.4995 58.4968 96.2755 58.5088 96.0435 58.5088H93.7875V61.1728H92.8995V52.7728H96.0435C97.1155 52.7728 97.9555 53.0288 98.5635 53.5408C99.1715 54.0528 99.4755 54.7568 99.4755 55.6528C99.4755 56.3088 99.3075 56.8648 98.9715 57.3208C98.6435 57.7688 98.1715 58.0928 97.5555 58.2928L99.6075 61.1728H98.6355ZM96.0195 57.7528C96.8515 57.7528 97.4875 57.5688 97.9275 57.2008C98.3675 56.8328 98.5875 56.3168 98.5875 55.6528C98.5875 54.9728 98.3675 54.4528 97.9275 54.0928C97.4875 53.7248 96.8515 53.5408 96.0195 53.5408H93.7875V57.7528H96.0195ZM104.715 52.7728C105.787 52.7728 106.627 53.0288 107.235 53.5408C107.843 54.0528 108.147 54.7568 108.147 55.6528C108.147 56.5488 107.843 57.2528 107.235 57.7648C106.627 58.2688 105.787 58.5208 104.715 58.5208H102.459V61.1728H101.571V52.7728H104.715ZM104.691 57.7408C105.523 57.7408 106.159 57.5608 106.599 57.2008C107.039 56.8328 107.259 56.3168 107.259 55.6528C107.259 54.9728 107.039 54.4528 106.599 54.0928C106.159 53.7248 105.523 53.5408 104.691 53.5408H102.459V57.7408H104.691ZM112.677 57.5488H115.821V58.2928H112.677V57.5488ZM123.652 61.2448C123.004 61.2448 122.424 61.0728 121.912 60.7288C121.408 60.3848 121.012 59.8928 120.724 59.2528C120.444 58.6048 120.304 57.8448 120.304 56.9728C120.304 56.1008 120.444 55.3448 120.724 54.7048C121.012 54.0568 121.408 53.5608 121.912 53.2168C122.424 52.8728 123.004 52.7008 123.652 52.7008C124.3 52.7008 124.876 52.8728 125.38 53.2168C125.892 53.5608 126.292 54.0568 126.58 54.7048C126.868 55.3448 127.012 56.1008 127.012 56.9728C127.012 57.8448 126.868 58.6048 126.58 59.2528C126.292 59.8928 125.892 60.3848 125.38 60.7288C124.876 61.0728 124.3 61.2448 123.652 61.2448ZM123.652 60.4528C124.14 60.4528 124.568 60.3168 124.936 60.0448C125.312 59.7728 125.604 59.3768 125.812 58.8568C126.02 58.3368 126.124 57.7088 126.124 56.9728C126.124 56.2368 126.02 55.6088 125.812 55.0888C125.604 54.5688 125.312 54.1728 124.936 53.9008C124.568 53.6288 124.14 53.4928 123.652 53.4928C123.164 53.4928 122.732 53.6288 122.356 53.9008C121.988 54.1728 121.7 54.5688 121.492 55.0888C121.284 55.6088 121.18 56.2368 121.18 56.9728C121.18 57.7088 121.284 58.3368 121.492 58.8568C121.7 59.3768 121.988 59.7728 122.356 60.0448C122.732 60.3168 123.164 60.4528 123.652 60.4528ZM133.061 56.7688C133.589 56.9448 133.993 57.2088 134.273 57.5608C134.561 57.9128 134.705 58.3368 134.705 58.8328C134.705 59.3208 134.573 59.7488 134.309 60.1168C134.045 60.4768 133.665 60.7568 133.169 60.9568C132.681 61.1488 132.105 61.2448 131.441 61.2448C130.433 61.2448 129.641 61.0288 129.065 60.5968C128.489 60.1648 128.201 59.5768 128.201 58.8328C128.201 58.3288 128.337 57.9048 128.609 57.5608C128.889 57.2088 129.293 56.9448 129.821 56.7688C129.389 56.6008 129.061 56.3608 128.837 56.0488C128.613 55.7288 128.501 55.3528 128.501 54.9208C128.501 54.2408 128.765 53.7008 129.293 53.3008C129.829 52.9008 130.545 52.7008 131.441 52.7008C132.033 52.7008 132.549 52.7928 132.989 52.9768C133.437 53.1528 133.785 53.4088 134.033 53.7448C134.281 54.0808 134.405 54.4728 134.405 54.9208C134.405 55.3528 134.289 55.7288 134.057 56.0488C133.825 56.3608 133.493 56.6008 133.061 56.7688ZM129.365 54.9448C129.365 55.4088 129.549 55.7768 129.917 56.0488C130.285 56.3208 130.793 56.4568 131.441 56.4568C132.089 56.4568 132.597 56.3208 132.965 56.0488C133.341 55.7768 133.529 55.4128 133.529 54.9568C133.529 54.4848 133.337 54.1128 132.953 53.8408C132.577 53.5688 132.073 53.4328 131.441 53.4328C130.801 53.4328 130.293 53.5688 129.917 53.8408C129.549 54.1128 129.365 54.4808 129.365 54.9448ZM131.441 60.5128C132.185 60.5128 132.765 60.3608 133.181 60.0568C133.605 59.7528 133.817 59.3408 133.817 58.8208C133.817 58.3008 133.605 57.8928 133.181 57.5968C132.765 57.2928 132.185 57.1408 131.441 57.1408C130.705 57.1408 130.125 57.2928 129.701 57.5968C129.285 57.8928 129.077 58.3008 129.077 58.8208C129.077 59.3488 129.285 59.7648 129.701 60.0688C130.117 60.3648 130.697 60.5128 131.441 60.5128ZM138.938 51.0688H139.718L135.758 62.3728H134.978L138.938 51.0688ZM146.241 58.9648H144.561V61.1728H143.697V58.9648H138.957V58.3408L143.409 52.7728H144.369L140.073 58.1968H143.721V56.2528H144.561V58.1968H146.241V58.9648ZM150.382 61.2448C149.734 61.2448 149.154 61.0728 148.642 60.7288C148.138 60.3848 147.742 59.8928 147.454 59.2528C147.174 58.6048 147.034 57.8448 147.034 56.9728C147.034 56.1008 147.174 55.3448 147.454 54.7048C147.742 54.0568 148.138 53.5608 148.642 53.2168C149.154 52.8728 149.734 52.7008 150.382 52.7008C151.03 52.7008 151.606 52.8728 152.11 53.2168C152.622 53.5608 153.022 54.0568 153.31 54.7048C153.598 55.3448 153.742 56.1008 153.742 56.9728C153.742 57.8448 153.598 58.6048 153.31 59.2528C153.022 59.8928 152.622 60.3848 152.11 60.7288C151.606 61.0728 151.03 61.2448 150.382 61.2448ZM150.382 60.4528C150.87 60.4528 151.298 60.3168 151.666 60.0448C152.042 59.7728 152.334 59.3768 152.542 58.8568C152.75 58.3368 152.854 57.7088 152.854 56.9728C152.854 56.2368 152.75 55.6088 152.542 55.0888C152.334 54.5688 152.042 54.1728 151.666 53.9008C151.298 53.6288 150.87 53.4928 150.382 53.4928C149.894 53.4928 149.462 53.6288 149.086 53.9008C148.718 54.1728 148.43 54.5688 148.222 55.0888C148.014 55.6088 147.91 56.2368 147.91 56.9728C147.91 57.7088 148.014 58.3368 148.222 58.8568C148.43 59.3768 148.718 59.7728 149.086 60.0448C149.462 60.3168 149.894 60.4528 150.382 60.4528ZM160.692 60.4048V61.1728H154.8V60.5608L158.292 57.1408C158.732 56.7088 159.028 56.3368 159.18 56.0248C159.34 55.7048 159.42 55.3848 159.42 55.0648C159.42 54.5688 159.248 54.1848 158.904 53.9128C158.568 53.6328 158.084 53.4928 157.452 53.4928C156.468 53.4928 155.704 53.8048 155.16 54.4288L154.548 53.9008C154.876 53.5168 155.292 53.2208 155.796 53.0128C156.308 52.8048 156.884 52.7008 157.524 52.7008C158.38 52.7008 159.056 52.9048 159.552 53.3128C160.056 53.7128 160.308 54.2648 160.308 54.9688C160.308 55.4008 160.212 55.8168 160.02 56.2168C159.828 56.6168 159.464 57.0768 158.928 57.5968L156.072 60.4048H160.692ZM163.985 56.2168C165.201 56.2168 166.085 56.4368 166.637 56.8768C167.197 57.3088 167.477 57.9168 167.477 58.7008C167.477 59.1888 167.361 59.6248 167.129 60.0088C166.905 60.3928 166.565 60.6968 166.109 60.9208C165.653 61.1368 165.093 61.2448 164.429 61.2448C163.829 61.2448 163.257 61.1488 162.713 60.9568C162.177 60.7568 161.745 60.4928 161.417 60.1648L161.837 59.4808C162.117 59.7688 162.485 60.0048 162.941 60.1888C163.397 60.3648 163.889 60.4528 164.417 60.4528C165.113 60.4528 165.649 60.2968 166.025 59.9848C166.409 59.6728 166.601 59.2568 166.601 58.7368C166.601 58.1608 166.385 57.7248 165.953 57.4288C165.529 57.1328 164.809 56.9848 163.793 56.9848H162.005L162.437 52.7728H167.033V53.5408H163.193L162.905 56.2168H163.985ZM174.251 60.4048V61.1728H168.359V60.5608L171.851 57.1408C172.291 56.7088 172.587 56.3368 172.739 56.0248C172.899 55.7048 172.979 55.3848 172.979 55.0648C172.979 54.5688 172.807 54.1848 172.463 53.9128C172.127 53.6328 171.643 53.4928 171.011 53.4928C170.027 53.4928 169.263 53.8048 168.719 54.4288L168.107 53.9008C168.435 53.5168 168.851 53.2208 169.355 53.0128C169.867 52.8048 170.443 52.7008 171.083 52.7008C171.939 52.7008 172.615 52.9048 173.111 53.3128C173.615 53.7128 173.867 54.2648 173.867 54.9688C173.867 55.4008 173.771 55.8168 173.579 56.2168C173.387 56.6168 173.023 57.0768 172.487 57.5968L169.631 60.4048H174.251Z" fill="#2A2A2A"/>
<defs>
<clipPath id="clip0_209_7">
<rect width="70" height="69" fill="white" transform="translate(0 0.172791)"/>
</clipPath>
</defs>
</svg>
