<svg width="373" height="59" viewBox="0 0 373 59" fill="none" xmlns="http://www.w3.org/2000/svg">
<path d="M320.631 2.15311C317.143 3.08064 317.067 6.46851 317.273 9.02014C329.504 9.08902 341.75 8.88475 353.974 9.11776C359.698 9.36205 364.172 13.8694 363.889 18.6402C364.195 23.4732 359.855 28.2266 353.987 28.5415C343.878 28.9249 333.712 28.3404 323.61 28.8306C319.608 28.9709 317.259 32.2654 317.413 35.3958C317.326 43.0881 317.402 50.7823 317.375 58.4753C319.941 58.197 322.877 59.0472 325.215 58.0321C326.456 55.985 325.423 53.3968 325.761 51.1426C325.93 46.5224 325.435 41.8438 325.982 37.2562C327.449 34.258 331.913 35.5984 334.839 35.3022C342.189 35.0981 349.611 35.7467 356.913 34.9026C364.498 33.9691 370.733 28.6406 371.893 22.245C373.734 15.2458 370.676 6.69415 362.392 3.71026C355.345 0.996261 347.821 2.20346 340.222 1.92837C333.7 2.06888 327.117 1.64122 320.631 2.15311Z" fill="#323232"/>
<path d="M255.778 2.15921C252.307 3.08668 252.122 6.45434 252.352 9.02C264.584 9.08888 276.83 8.88461 289.053 9.11762C294.778 9.36191 299.252 13.8693 298.969 18.6401C299.275 23.4731 294.935 28.2264 289.067 28.5413C278.958 28.9248 268.791 28.3403 258.69 28.8305C254.688 28.9708 252.339 32.2653 252.493 35.3957C252.406 43.0879 252.481 50.7822 252.455 58.4752C255.112 58.104 258.88 59.459 260.619 57.2016C261.195 50.7563 260.58 44.2172 260.922 37.7492C261.526 34.7339 265.778 35.283 268.407 35.302C276.126 35.1122 283.907 35.7051 291.586 34.9597C299.061 34.154 305.403 29.1414 306.83 22.8727C308.889 15.825 306.142 7.049 297.814 3.84612C290.806 0.994648 283.275 2.18806 275.68 1.92823C269.058 2.07458 262.36 1.63035 255.778 2.15921Z" fill="#323232"/>
<path d="M202.357 35.007C198.266 35.1952 194.228 38.0489 193.102 42.224C198.274 41.7368 203.99 43.4771 208.743 40.6775C210.803 39.4313 212.454 37.3886 213.102 34.9904C209.52 34.9996 205.938 34.9693 202.357 35.007Z" fill="#91C278"/>
<path d="M202.402 0.886064C197.295 0.793468 192.216 3.33463 190.65 7.56582C182.724 24.5357 174.798 41.5056 166.873 58.4755C170.068 58.1198 174.039 59.4141 176.58 57.2707C180.959 48.8667 184.617 40.1699 188.718 31.653C192.071 24.6236 195.166 17.4938 198.674 10.5249C200.903 6.99607 208.022 7.68217 209.083 11.6542C215.917 26.8406 222.571 42.1024 229.517 57.2419C231.234 59.4455 234.962 58.1043 237.569 58.4755C241.118 59.1497 237.793 55.8139 237.58 54.2926C230.327 38.2901 223.284 22.2133 215.902 6.25703C213.656 1.77738 207.626 0.570779 202.402 0.886064Z" fill="#323232"/>
<path d="M123.674 35.0068C119.583 35.195 115.545 38.0488 114.419 42.224C119.591 41.7367 125.308 43.4771 130.06 40.6774C132.121 39.4312 133.772 37.3884 134.419 34.9902C130.838 34.9994 127.255 34.9691 123.674 35.0068Z" fill="#91C278"/>
<path d="M123.719 0.886064C118.612 0.793468 113.534 3.33463 111.967 7.56582C104.041 24.5357 96.1156 41.5056 88.1899 58.4755C91.3855 58.1198 95.356 59.4141 97.8971 57.2707C102.276 48.8667 105.934 40.1699 110.035 31.653C113.388 24.6236 116.483 17.4938 119.991 10.5249C122.22 6.99607 129.34 7.68217 130.4 11.6542C137.234 26.8406 143.888 42.1024 150.834 57.2419C152.551 59.4455 156.279 58.1043 158.886 58.4755C162.436 59.1497 159.111 55.8139 158.898 54.2926C151.644 38.2901 144.601 22.2133 137.219 6.25703C134.973 1.77738 128.943 0.570779 123.719 0.886064Z" fill="#323232"/>
<path d="M73.9888 2.19044C70.0055 3.26858 69.7772 7.1383 70.0542 10.0938C70.0542 26.2209 70.0542 42.348 70.0542 58.4752C74.3119 59.1473 78.8622 56.2715 78.4401 52.4559C78.4401 35.6134 78.4401 18.7708 78.4401 1.92824C76.9414 1.89851 75.4584 1.9097 73.9888 2.19044Z" fill="#323232"/>
<path d="M37.2407 27.5611C36.894 29.39 36.9314 31.2659 37.3367 33.0859C42.5561 32.833 49.1411 33.973 51.1039 38.6794C53.5557 43.6421 50.1408 50.4862 43.3824 51.0713C36.5762 51.7741 29.6698 51.1842 22.8239 51.3835C15.939 51.3835 9.05419 51.3835 2.16935 51.3835C1.46202 55.233 5.49458 58.9817 10.1447 58.4696C21.5287 58.3948 32.9353 58.6675 44.3052 58.263C50.9732 57.7037 57.737 54.1577 59.2978 48.3495C61.1068 42.6657 60.577 35.7589 55.6364 31.2818C51.9503 28.1901 46.5905 26.9354 41.9356 26.7246C40.5723 26.9736 37.0995 25.745 37.2407 27.5611Z" fill="#323232"/>
<path d="M18.4022 1.97843C11.5036 2.18999 3.96274 5.23042 2.01441 11.2614C0.0459027 16.7095 0.416883 23.3402 4.77342 27.9087C8.90776 31.941 15.4316 33.0292 21.3771 33.0736C21.7383 30.9737 21.8895 28.5607 21.163 26.6186C16.0936 26.7448 10.2177 24.4031 9.48488 19.7266C8.23456 15.1496 11.6943 9.67286 17.5902 9.28246C25.0416 8.6848 32.5667 9.19076 40.0474 9.02027C44.9854 9.02027 49.9234 9.02027 54.8614 9.02027C55.6319 5.59982 52.7002 1.76703 48.3284 1.92849C38.3536 1.9623 28.3747 1.86113 18.4022 1.97843Z" fill="#323232"/>
</svg>
